<?xml version="1.0" encoding="UTF-8"?>
<svg version="1.1" xmlns="http://www.w3.org/2000/svg" width="1024" height="1024">
<path d="M0 0 C337.92 0 675.84 0 1024 0 C1024 337.92 1024 675.84 1024 1024 C686.08 1024 348.16 1024 0 1024 C0 686.08 0 348.16 0 0 Z " fill="#FEFEFE" transform="translate(0,0)"/>
<path d="M0 0 C0 3 0 3 -1.35546875 4.6484375 C-1.96003906 5.21820313 -2.56460938 5.78796875 -3.1875 6.375 C-4.15623047 7.30505859 -4.15623047 7.30505859 -5.14453125 8.25390625 C-5.75683594 8.83011719 -6.36914062 9.40632812 -7 10 C-21.45729146 24.07683642 -32.60624734 39.65718168 -41 58 C-40.67 58.33 -40.34 58.66 -40 59 C-39.15179688 58.46890625 -38.30359375 57.9378125 -37.4296875 57.390625 C-20.94179057 47.33488501 -3.90665855 44.047396 15 48.625 C29.94089849 53.25299535 43.90139793 63.31222185 52 77 C52 77.99 52 78.98 52 80 C50.52076554 79.85485591 49.04161704 79.70883578 47.5625 79.5625 C46.32693359 79.44068359 46.32693359 79.44068359 45.06640625 79.31640625 C42.7727813 79.07973922 40.48409156 78.79434747 38.19921875 78.484375 C30.91213294 77.67957789 23.57320339 77.71461831 16.25 77.6875 C15.47764008 77.68355225 14.70528015 77.67960449 13.90951538 77.67553711 C1.22822031 77.64528836 -10.68398802 78.79583428 -23 82 C-22.04480469 82.29132813 -21.08960938 82.58265625 -20.10546875 82.8828125 C-2.20412793 88.49194578 13.71245905 97.57511443 23.1875 114.375 C28.50326262 124.62276698 31.18973665 133.32582692 31.0625 144.875 C31.05798828 145.65875 31.05347656 146.4425 31.04882812 147.25 C31.03714093 149.16670014 31.01920908 151.08336048 31 153 C27.93209908 151.64034783 25.92796961 150.1312968 23.63671875 147.69140625 C23.00507813 147.03213135 22.3734375 146.37285645 21.72265625 145.69360352 C21.05105469 144.99033936 20.37945312 144.2870752 19.6875 143.5625 C2.86768141 126.403139 -19.15688638 111.76594335 -43 107 C-42.67314209 107.62229492 -42.34628418 108.24458984 -42.00952148 108.88574219 C-34.83944939 122.62827531 -28.6586897 136.21162592 -24 151 C-23.67 151.99 -23.34 152.98 -23 154 C-22.96045766 156.33299825 -22.95598268 158.66708189 -23 161 C-27.79482068 163.75702189 -31.58609132 164.53328373 -37 165 C-39.42288278 161.2900957 -40.83595565 157.79851341 -42.0859375 153.5546875 C-42.45976562 152.31203125 -42.83359375 151.069375 -43.21875 149.7890625 C-43.79543683 147.84177032 -44.36949424 145.89372527 -44.94238281 143.9453125 C-47.17795242 136.3775812 -49.59776091 129.17573417 -53.06884766 122.07861328 C-54 120 -54 120 -54 118 C-54.66 118 -55.32 118 -56 118 C-56.05025719 123.91836373 -56.08611507 129.83659738 -56.10986328 135.75512695 C-56.11978612 137.75938079 -56.13332869 139.7636207 -56.15087891 141.76782227 C-56.45912644 177.93251078 -49.3552531 209.78540449 -35 243 C-32.80233303 243.23495122 -32.80233303 243.23495122 -31.15234375 241.1640625 C-30.05599609 239.90722656 -30.05599609 239.90722656 -28.9375 238.625 C-28.12410156 237.70332031 -27.31070313 236.78164063 -26.47265625 235.83203125 C-25.65667969 234.89746094 -24.84070313 233.96289062 -24 233 C4.40886962 200.50970488 37.98859079 178.61328084 78.3125 163.4375 C79.47563721 162.99543213 80.63877441 162.55336426 81.8371582 162.09790039 C83.48977661 161.4906311 83.48977661 161.4906311 85.17578125 160.87109375 C86.15458252 160.50943115 87.13338379 160.14776855 88.1418457 159.77514648 C91.33171618 158.91003683 93.71629422 158.54809833 97 159 C98.78271484 160.8359375 98.78271484 160.8359375 100.2109375 163.375 C100.73300781 164.27734375 101.25507813 165.1796875 101.79296875 166.109375 C102.31503906 167.06328125 102.83710938 168.0171875 103.375 169 C104.19291016 170.43085938 104.19291016 170.43085938 105.02734375 171.890625 C106.37207178 174.24979698 107.69477976 176.61881217 109 179 C105.94695733 182.64875831 102.88825494 186.16735372 99.48046875 189.48828125 C82.06608445 206.67334033 71.01970325 230.06174627 61 252 C71.28372923 253.09338729 81.56814719 254.17988373 91.85401917 255.25294495 C96.34343416 255.72134376 100.8321264 256.1957245 105.3203125 256.67578125 C118.52362603 258.05045437 131.73435544 258.5938583 145 259 C144.99214478 257.5773584 144.99214478 257.5773584 144.98413086 256.12597656 C144.96706655 252.59992869 144.9545389 249.07392485 144.94506836 245.54785156 C144.94004635 244.02310493 144.9332275 242.49836309 144.92456055 240.97363281 C144.91240151 238.77928481 144.90675032 236.5850006 144.90234375 234.390625 C144.89448853 232.4111084 144.89448853 232.4111084 144.88647461 230.39160156 C145.05997979 225.2080876 145.05997979 225.2080876 146 223 C149.42232972 221.85922343 152.08673217 221.90184883 155.6875 221.9375 C156.86699219 221.94652344 158.04648437 221.95554687 159.26171875 221.96484375 C160.16535156 221.97644531 161.06898438 221.98804688 162 222 C164.07418879 226.26680012 164.2328762 229.77403712 164.1953125 234.48828125 C164.19106766 235.5430793 164.19106766 235.5430793 164.18673706 236.6191864 C164.17560151 238.85046892 164.15050997 241.08134017 164.125 243.3125 C164.1149616 244.83137438 164.10583726 246.3502551 164.09765625 247.86914062 C164.07568413 251.57955921 164.04120047 255.28973942 164 259 C191.80205448 258.56246936 219.58277473 255.59856891 247 251 C246.41397112 245.79085439 244.73823348 241.66822423 242.5 237 C242.14470215 236.25524414 241.7894043 235.51048828 241.42333984 234.74316406 C231.51591012 214.4612586 216.32435522 195.4824114 200 180 C201.27800516 176.55044666 202.76118437 173.61909971 204.8203125 170.57421875 C205.35527344 169.77822266 205.89023437 168.98222656 206.44140625 168.16210938 C206.99699219 167.34548828 207.55257813 166.52886719 208.125 165.6875 C208.68832031 164.85154297 209.25164062 164.01558594 209.83203125 163.15429688 C211.21720789 161.10000948 212.60662219 159.04872962 214 157 C259.65665648 161.63455772 310.81446546 199.02535596 339.4375 233.125 C362.14266799 261.62896988 362.14266799 261.62896988 361.93359375 269.5 C360.69190496 272.82502438 358.90245675 274.41144346 356.25 276.75 C355.38890625 277.52859375 354.5278125 278.3071875 353.640625 279.109375 C350.96118983 281.02778716 349.23872075 281.65049776 346 282 C345.35933594 280.87722656 344.71867188 279.75445312 344.05859375 278.59765625 C337.04700136 266.0735903 337.04700136 266.0735903 328 255 C321.55316135 255.4410608 315.90407703 257.17999895 309.8125 259.25 C299.00724936 262.81759728 288.10276009 265.53650415 277 268 C277 271.45286716 277.33410622 273.7988005 278.171875 277.0859375 C278.42243652 278.08866699 278.67299805 279.09139648 278.93115234 280.12451172 C279.20137207 281.19717285 279.4715918 282.26983398 279.75 283.375 C281.82532176 291.8400958 283.7730369 300.30674316 285.375 308.875 C285.54225586 309.73399902 285.70951172 310.59299805 285.88183594 311.47802734 C286.97820823 317.54815738 287.79506062 323.84826678 287 330 C284.84093279 332.4829273 283.71499757 333.45102244 281 335 C280.31550781 335.46277344 279.63101562 335.92554688 278.92578125 336.40234375 C273.53427978 340 273.53427978 340 270 340 C269.85304688 339.12085938 269.70609375 338.24171875 269.5546875 337.3359375 C266.69643599 303.02645579 266.69643599 303.02645579 255 273 C245.99325527 273.15979175 236.91000704 274.69725439 227.9699707 275.76464844 C210.52365287 277.84442001 193.14211817 279.61504752 175.58911133 280.45483398 C174.3286499 280.51614502 173.06818848 280.57745605 171.76953125 280.640625 C170.67229736 280.68735352 169.57506348 280.73408203 168.44458008 280.78222656 C166.05446491 280.73167709 166.05446491 280.73167709 165 282 C164.90501354 284.43396019 164.87441583 286.83942952 164.88647461 289.27368164 C164.88625557 290.41506844 164.88625557 290.41506844 164.8860321 291.57951355 C164.88673138 294.10642298 164.89452445 296.63325962 164.90234375 299.16015625 C164.90420788 300.9075059 164.9056318 302.65485607 164.90663147 304.40220642 C164.91045707 309.01031934 164.92028771 313.61840095 164.93133545 318.22650146 C164.94334306 323.75059614 164.94795161 329.27470126 164.95378876 334.79880524 C164.96349945 343.1992253 164.9826557 351.59957659 165 360 C189.09 360.33 213.18 360.66 238 361 C234.19204939 364.80795061 230.84419704 367.64300208 226.375 370.4375 C225.82199219 370.79392578 225.26898437 371.15035156 224.69921875 371.51757812 C223.49734365 372.28056625 222.28145864 373.02176518 221.05517578 373.74487305 C218.9416976 374.99390648 218.9416976 374.99390648 216.84716797 376.59301758 C207.51513131 382.82828715 197.16824527 381.85874899 186.375 381.8125 C183.46325842 381.82667198 180.55170612 381.84898062 177.64004517 381.87467957 C175.83830866 381.88772574 174.03648925 381.89246242 172.23471069 381.88813782 C168.30326235 381.49280768 168.30326235 381.49280768 165 383 C164.83011813 386.55241866 164.70269175 390.09817302 164.65820312 393.65429688 C164.44614623 399.38969613 164.44614623 399.38969613 162.26953125 402.3671875 C159.90795941 404.06621853 157.59821353 405.50151116 155 406.8125 C154.154375 407.25207031 153.30875 407.69164062 152.4375 408.14453125 C149.69438423 409.10725938 148.70443761 408.81011629 146 408 C145.98018066 407.31897217 145.96036133 406.63794434 145.93994141 405.9362793 C145.84473017 402.85296083 145.73503534 399.77032351 145.625 396.6875 C145.5940625 395.61564453 145.563125 394.54378906 145.53125 393.43945312 C145.49257813 392.41142578 145.45390625 391.38339844 145.4140625 390.32421875 C145.36693115 388.9024231 145.36693115 388.9024231 145.31884766 387.4519043 C145.1510949 384.7469731 145.1510949 384.7469731 143 382 C141.12205261 381.55247742 141.12205261 381.55247742 138.93186951 381.63250732 C138.08073578 381.62693817 137.22960205 381.62136902 136.35267639 381.6156311 C135.4170134 381.62484589 134.4813504 381.63406067 133.51733398 381.64355469 C132.5335376 381.64151031 131.54974121 381.63946594 130.53613281 381.63735962 C127.27259962 381.63434267 124.00956719 381.65285506 120.74609375 381.671875 C118.48690415 381.67493088 116.22771267 381.6768083 113.96852112 381.67755127 C109.22967338 381.68215996 104.49099505 381.69660855 99.75219727 381.71875 C93.6630406 381.74704893 87.57401747 381.75796241 81.48480129 381.7624321 C76.81898143 381.76657925 72.15318886 381.77639055 67.48738289 381.78830719 C65.24138675 381.79402365 62.99538795 381.79877777 60.74938774 381.80257416 C57.61730153 381.80941227 54.48532347 381.82303252 51.35327148 381.83886719 C50.41558426 381.83998505 49.47789703 381.84110291 48.51179504 381.84225464 C44.4324845 381.45530335 44.4324845 381.45530335 41 383 C39.51453558 400.51134023 42.7601929 418.94860763 45.60742188 436.17407227 C46.11628435 439.83705931 46.14472816 443.30943187 46 447 C44.12743583 447.50904657 42.25180659 448.00682455 40.375 448.5 C39.33085937 448.7784375 38.28671875 449.056875 37.2109375 449.34375 C34.04312582 449.99118596 31.22258533 450.1161292 28 450 C27.36849098 446.98040589 26.74478575 443.95950497 26.125 440.9375 C25.95097656 440.10927734 25.77695312 439.28105469 25.59765625 438.42773438 C22.80166272 424.70665502 21.60712663 411.01324761 20.875 397.0625 C20.7882911 395.49280914 20.70105403 393.92314736 20.61328125 392.35351562 C20.40279436 388.56931632 20.1993519 384.78480154 20 381 C19.14366722 381.01879211 19.14366722 381.01879211 18.27003479 381.03796387 C12.18375208 381.17098171 6.09739472 381.30011259 0.01098633 381.42724609 C-2.24326555 381.47480482 -4.49749856 381.52326921 -6.75170898 381.57275391 C-22.8369001 381.92501061 -38.91099413 382.06814321 -55 382 C-53.07492419 406.19005722 -48.07564927 428.49570558 -39.86035156 451.35058594 C-39.03561237 453.8903333 -38.46540412 456.37302583 -38 459 C-45.08131076 462.24560076 -51.17063525 464.0566235 -59 464 C-79.17544851 406.1460938 -86.35788632 344.11595145 -59.1171875 286.93359375 C-58.08621309 284.82609024 -57.03041808 282.7302451 -55.93359375 280.65625 C-53.74358313 274.42525745 -57.35474584 268.28297282 -59.6875 262.5 C-70.79614994 233.91743373 -74.71816629 205.00387274 -74.46655273 174.40649414 C-74.43732575 170.5394453 -74.44606881 166.67375562 -74.45898438 162.80664062 C-74.44585871 148.27306407 -73.54132326 134.30770545 -71 120 C-70.77728457 118.65024446 -70.5569829 117.30008744 -70.33959961 115.94946289 C-69.91084005 113.29607871 -69.46584039 110.64706953 -69 108 C-93.61382353 128.66432749 -110.01939239 154.93251269 -121 185 C-121.99 185 -122.98 185 -124 185 C-124.80063104 183.33762104 -125.59000368 181.66981875 -126.375 180 C-126.81585938 179.071875 -127.25671875 178.14375 -127.7109375 177.1875 C-134.00184083 161.63181176 -132.60707239 142.35928726 -126.17041016 127.0234375 C-119.851266 113.04939514 -110.42675936 103.70503955 -98 95 C-124.16667716 97.51269416 -149.75399191 108.29378184 -170.21484375 124.78515625 C-172 126 -172 126 -175 126 C-174.7060023 112.6631953 -169.67071143 101.73553292 -162 91 C-161.56300781 90.36578125 -161.12601563 89.7315625 -160.67578125 89.078125 C-152.18983557 77.96739733 -136.54767235 70.15313866 -123 68 C-118.33024925 67.71807612 -113.67695225 67.72064674 -109 67.75 C-107.76765625 67.74226563 -106.5353125 67.73453125 -105.265625 67.7265625 C-98.82729879 67.74037865 -93.15247549 68.06197022 -87 70 C-106.53535812 52.26630468 -130.4411992 39.38270162 -156 33 C-156 31.68 -156 30.36 -156 29 C-145.87910695 19.60202789 -131.12676193 17.67750823 -117.88671875 17.78125 C-112.30572863 18.09535598 -107.29854657 19.27123693 -102 21 C-101.14921875 21.26683594 -100.2984375 21.53367188 -99.421875 21.80859375 C-85.15798058 26.85478281 -74.58032696 37.61789276 -68 51 C-67.67 51 -67.34 51 -67 51 C-66.85304688 50.26136719 -66.70609375 49.52273437 -66.5546875 48.76171875 C-63.21519094 33.65721418 -55.11162561 21.84779385 -42.625 12.65625 C-30.17258406 4.79936851 -14.90036085 -1.26214821 0 0 Z " fill="#116895" transform="translate(346,158)"/>
<path d="M0 0 C2.45798308 1.90541324 4.74543914 3.89529713 7.01953125 6.015625 C7.78523437 6.69109375 8.5509375 7.3665625 9.33984375 8.0625 C23.70247678 21.40270831 30.67452127 39.83347363 32.26953125 59.0234375 C32.87192285 84.85097751 20.35798883 105.65016104 7.02734375 126.64453125 C3.00837668 132.98980553 -0.83647245 139.43102654 -4.66796875 145.890625 C-10.78700585 156.16084728 -17.17694001 166.18617778 -23.98046875 176.015625 C-24.44356445 176.68754883 -24.90666016 177.35947266 -25.38378906 178.05175781 C-26.72011473 179.98326164 -28.06606069 181.90750255 -29.41796875 183.828125 C-29.80702393 184.3852417 -30.1960791 184.9423584 -30.59692383 185.51635742 C-37.14448399 194.68180959 -37.14448399 194.68180959 -42.41796875 195.640625 C-48.81826785 194.51776551 -51.99126656 190.20970355 -55.64453125 185.1640625 C-56.97495484 183.24655938 -58.29476585 181.32166178 -59.60546875 179.390625 C-60.66314453 177.84918823 -60.66314453 177.84918823 -61.7421875 176.27661133 C-68.06659408 167.00449755 -74.09782688 157.57229498 -79.98046875 148.015625 C-80.62048828 146.97905762 -81.26050781 145.94249023 -81.91992188 144.87451172 C-85.96822394 138.31744298 -90.00828637 131.75540828 -94.03222656 125.18334961 C-95.37224307 123.00456338 -96.72106279 120.83117471 -98.07714844 118.66235352 C-101.93618743 112.47229996 -105.6193026 106.30421426 -108.73046875 99.703125 C-109.10751953 98.90624268 -109.48457031 98.10936035 -109.87304688 97.28833008 C-119.34593592 76.53652511 -120.38465168 54.90894249 -112.79296875 33.390625 C-104.82773319 13.94885181 -89.92435269 0.67843412 -71.04296875 -7.796875 C-47.00840144 -17.12090111 -21.41220565 -14.25609498 0 0 Z " fill="#F5781E" transform="translate(542.98046875,168.984375)"/>
<path d="M0 0 C0 3 0 3 -1.35546875 4.6484375 C-1.96003906 5.21820313 -2.56460938 5.78796875 -3.1875 6.375 C-4.15623047 7.30505859 -4.15623047 7.30505859 -5.14453125 8.25390625 C-5.75683594 8.83011719 -6.36914062 9.40632812 -7 10 C-21.45729146 24.07683642 -32.60624734 39.65718168 -41 58 C-40.67 58.33 -40.34 58.66 -40 59 C-39.15179688 58.46890625 -38.30359375 57.9378125 -37.4296875 57.390625 C-20.94179057 47.33488501 -3.90665855 44.047396 15 48.625 C29.94089849 53.25299535 43.90139793 63.31222185 52 77 C52 77.99 52 78.98 52 80 C50.52076554 79.85485591 49.04161704 79.70883578 47.5625 79.5625 C46.32693359 79.44068359 46.32693359 79.44068359 45.06640625 79.31640625 C42.7727813 79.07973922 40.48409156 78.79434747 38.19921875 78.484375 C30.91213294 77.67957789 23.57320339 77.71461831 16.25 77.6875 C15.47764008 77.68355225 14.70528015 77.67960449 13.90951538 77.67553711 C1.22822031 77.64528836 -10.68398802 78.79583428 -23 82 C-22.04480469 82.29132813 -21.08960938 82.58265625 -20.10546875 82.8828125 C-2.20412793 88.49194578 13.71245905 97.57511443 23.1875 114.375 C28.50326262 124.62276698 31.18973665 133.32582692 31.0625 144.875 C31.05798828 145.65875 31.05347656 146.4425 31.04882812 147.25 C31.03714093 149.16670014 31.01920908 151.08336048 31 153 C27.93209908 151.64034783 25.92796961 150.1312968 23.63671875 147.69140625 C23.00507813 147.03213135 22.3734375 146.37285645 21.72265625 145.69360352 C21.05105469 144.99033936 20.37945312 144.2870752 19.6875 143.5625 C2.86768141 126.403139 -19.15688638 111.76594335 -43 107 C-42.67314209 107.62229492 -42.34628418 108.24458984 -42.00952148 108.88574219 C-34.83944939 122.62827531 -28.6586897 136.21162592 -24 151 C-23.67 151.99 -23.34 152.98 -23 154 C-22.96045766 156.33299825 -22.95598268 158.66708189 -23 161 C-27.79482068 163.75702189 -31.58609132 164.53328373 -37 165 C-39.42288278 161.2900957 -40.83595565 157.79851341 -42.0859375 153.5546875 C-42.45976562 152.31203125 -42.83359375 151.069375 -43.21875 149.7890625 C-43.79543683 147.84177032 -44.36949424 145.89372527 -44.94238281 143.9453125 C-47.17795242 136.3775812 -49.59776091 129.17573417 -53.06884766 122.07861328 C-54 120 -54 120 -54 118 C-54.66 118 -55.32 118 -56 118 C-56.05025719 123.91836373 -56.08611507 129.83659738 -56.10986328 135.75512695 C-56.11978612 137.75938079 -56.13332869 139.7636207 -56.15087891 141.76782227 C-56.43265559 174.82685698 -51.31486261 205.55567595 -37.75732422 235.90698242 C-37.38365723 236.76525635 -37.00999023 237.62353027 -36.625 238.5078125 C-36.28726563 239.25691895 -35.94953125 240.00602539 -35.6015625 240.77783203 C-34.62799342 244.37418987 -35.44638973 246.93502616 -37.13574219 250.18481445 C-37.60141602 250.9037085 -38.06708984 251.62260254 -38.546875 252.36328125 C-39.3203125 253.57081055 -39.3203125 253.57081055 -40.109375 254.80273438 C-40.65078125 255.63095703 -41.1921875 256.45917969 -41.75 257.3125 C-42.80741661 258.95434662 -43.86470949 260.59627294 -44.921875 262.23828125 C-45.43556641 263.03057129 -45.94925781 263.82286133 -46.47851562 264.63916016 C-48.68954589 268.06994685 -50.84578425 271.53330835 -53 275 C-55.43413651 272.81635437 -56.65152856 270.92572698 -57.83203125 267.88671875 C-58.15268555 267.06292725 -58.47333984 266.23913574 -58.80371094 265.39038086 C-59.13661133 264.49843018 -59.46951172 263.60647949 -59.8125 262.6875 C-60.1621582 261.75107666 -60.51181641 260.81465332 -60.87207031 259.84985352 C-71.03536055 232.02146542 -74.70970326 203.97472932 -74.46655273 174.40649414 C-74.43732575 170.5394453 -74.44606881 166.67375562 -74.45898438 162.80664062 C-74.44585871 148.27306407 -73.54132326 134.30770545 -71 120 C-70.77728457 118.65024446 -70.5569829 117.30008744 -70.33959961 115.94946289 C-69.91084005 113.29607871 -69.46584039 110.64706953 -69 108 C-93.61382353 128.66432749 -110.01939239 154.93251269 -121 185 C-121.99 185 -122.98 185 -124 185 C-124.80063104 183.33762104 -125.59000368 181.66981875 -126.375 180 C-126.81585938 179.071875 -127.25671875 178.14375 -127.7109375 177.1875 C-134.00184083 161.63181176 -132.60707239 142.35928726 -126.17041016 127.0234375 C-119.851266 113.04939514 -110.42675936 103.70503955 -98 95 C-124.16667716 97.51269416 -149.75399191 108.29378184 -170.21484375 124.78515625 C-172 126 -172 126 -175 126 C-174.7060023 112.6631953 -169.67071143 101.73553292 -162 91 C-161.56300781 90.36578125 -161.12601563 89.7315625 -160.67578125 89.078125 C-152.18983557 77.96739733 -136.54767235 70.15313866 -123 68 C-118.33024925 67.71807612 -113.67695225 67.72064674 -109 67.75 C-107.76765625 67.74226563 -106.5353125 67.73453125 -105.265625 67.7265625 C-98.82729879 67.74037865 -93.15247549 68.06197022 -87 70 C-106.53535812 52.26630468 -130.4411992 39.38270162 -156 33 C-156 31.68 -156 30.36 -156 29 C-145.87910695 19.60202789 -131.12676193 17.67750823 -117.88671875 17.78125 C-112.30572863 18.09535598 -107.29854657 19.27123693 -102 21 C-101.14921875 21.26683594 -100.2984375 21.53367188 -99.421875 21.80859375 C-85.15798058 26.85478281 -74.58032696 37.61789276 -68 51 C-67.67 51 -67.34 51 -67 51 C-66.85304688 50.26136719 -66.70609375 49.52273437 -66.5546875 48.76171875 C-63.21519094 33.65721418 -55.11162561 21.84779385 -42.625 12.65625 C-30.17258406 4.79936851 -14.90036085 -1.26214821 0 0 Z " fill="#2A8A56" transform="translate(346,158)"/>
<path d="M0 0 C1.84187144 1.84187144 1.24033757 4.82188434 1.31640625 7.296875 C1.33727798 7.95008728 1.35814972 8.60329956 1.37965393 9.27630615 C1.44633731 11.43407686 1.50497693 13.59196682 1.5625 15.75 C1.58334656 16.4824292 1.60419312 17.2148584 1.62567139 17.96948242 C1.93211911 28.8124718 2.1023501 39.6527546 2.125 50.5 C2.12959229 51.74491211 2.13418457 52.98982422 2.13891602 54.27246094 C2.13690186 55.40973633 2.1348877 56.54701172 2.1328125 57.71875 C2.13112061 59.21825195 2.13112061 59.21825195 2.12939453 60.74804688 C2 63 2 63 1 64 C-4.53173455 63.67300091 -7.78330641 62.20685694 -12.25 59 C-16.38038412 56.01974889 -16.38038412 56.01974889 -21 54 C-21.23589844 54.53496094 -21.47179687 55.06992187 -21.71484375 55.62109375 C-23.36474225 58.67516118 -25.430795 61.33713009 -27.5625 64.0625 C-28.23176514 64.92403687 -28.23176514 64.92403687 -28.91455078 65.80297852 C-35.03154456 73.64586162 -41.36715726 81.30072276 -47.8125 88.875 C-48.24933105 89.39118896 -48.68616211 89.90737793 -49.13623047 90.43920898 C-59.72737533 102.80800629 -71.17911075 114.33839821 -82.70117188 125.83154297 C-85.26288646 128.3878593 -87.81916106 130.94952929 -90.375 133.51171875 C-92.02572086 135.16177933 -93.6767516 136.81152998 -95.328125 138.4609375 C-96.08039368 139.21523041 -96.83266235 139.96952332 -97.60772705 140.74667358 C-101.71341992 144.83442791 -105.90617885 148.75943053 -110.29928589 152.53739929 C-112.5332338 154.45857685 -114.70158852 156.44833967 -116.875 158.4375 C-120.85193835 162.02277018 -124.92973882 165.41593755 -129.13671875 168.7265625 C-131.28341893 170.43103659 -133.40697521 172.15257011 -135.51953125 173.8984375 C-145.73657761 182.32685081 -156.2771643 190.22886933 -167 198 C-168.50142238 199.09358486 -170.00272683 200.18733165 -171.50390625 201.28125 C-175.21846569 203.98256199 -178.94514567 206.66642685 -182.68017578 209.33935547 C-184.25823726 210.46900966 -185.83467625 211.60093307 -187.40966797 212.73486328 C-198.87129374 220.97240944 -210.55751437 228.55738154 -222.74560547 235.67431641 C-224.78182147 236.87170139 -226.80250315 238.08978757 -228.81640625 239.32421875 C-285.2443962 273.9041526 -349.6658401 298.66404871 -414 314 C-415.14791016 314.2779541 -416.29582031 314.5559082 -417.47851562 314.84228516 C-445.60454653 321.60831383 -473.91335926 326.35494905 -502.76312256 328.80474854 C-504.38090464 328.94596071 -505.99807136 329.09428339 -507.61480713 329.24700928 C-525.22717941 330.90325723 -542.73039537 331.31716569 -560.40283203 331.26074219 C-564.07848139 331.24913236 -567.7538454 331.25608333 -571.42948532 331.26788712 C-574.3034481 331.27511408 -577.17734285 331.27281763 -580.05130768 331.26763153 C-582.0598215 331.26567331 -584.06833809 331.27168244 -586.07684326 331.27789307 C-587.29381897 331.27158875 -588.51079468 331.26528442 -589.76464844 331.25878906 C-590.82762146 331.25719788 -591.89059448 331.25560669 -592.98577881 331.25396729 C-596.28602376 330.97590068 -598.94795755 330.27881998 -602 329 C-602.875 326.875 -602.875 326.875 -603 325 C-599.6509501 321.96349421 -597.20478237 321.56190682 -592.7421875 321.33984375 C-591.49058838 321.26975098 -590.23898926 321.1996582 -588.94946289 321.12744141 C-588.28608917 321.09660461 -587.62271545 321.06576782 -586.9392395 321.03399658 C-584.84196742 320.93595583 -582.7462662 320.82075419 -580.65014648 320.70068359 C-577.78995081 320.53738025 -574.9295627 320.37903087 -572.06884766 320.22509766 C-485.62813764 315.51070196 -399.84925355 293.9099118 -311 254 C-310.06043457 253.56107422 -309.12086914 253.12214844 -308.15283203 252.66992188 C-281.99675668 240.39632541 -256.66053238 227.0330472 -232 212 C-231.19997559 211.51547363 -230.39995117 211.03094727 -229.57568359 210.53173828 C-192.93741299 188.30336003 -158.294414 161.83270465 -126.9140625 132.66796875 C-124.77113036 130.70600809 -122.60905839 128.80850353 -120.40234375 126.921875 C-115.2167422 122.40041802 -110.37952025 117.52938199 -105.52709961 112.6574707 C-103.94040054 111.06541034 -102.34842258 109.4787701 -100.75585938 107.89257812 C-95.29296277 102.4332503 -90.01082071 96.88106185 -85 91 C-83.54554483 89.39231627 -82.08779105 87.78760285 -80.625 86.1875 C-76.78632837 81.92877171 -73.11524335 77.56428016 -69.51171875 73.10546875 C-67.65139752 70.80538263 -65.77947665 68.51800364 -63.89453125 66.23828125 C-58.48102104 59.67250099 -53.15333209 53.05469249 -48.125 46.1875 C-47.69002197 45.60701904 -47.25504395 45.02653809 -46.80688477 44.4284668 C-45.48771647 42.64461873 -45.48771647 42.64461873 -44 40 C-45.54071529 35.37785414 -49.40223587 34.29438249 -53.53125 32.01171875 C-56 30 -56 30 -56.84375 26.76953125 C-56.8953125 25.85558594 -56.946875 24.94164062 -57 24 C-44.1126461 15.76942104 -29.22299427 10.00666741 -15.3125 3.75 C-14.24418945 3.26015625 -13.17587891 2.7703125 -12.07519531 2.265625 C-10.57811035 1.60046875 -10.57811035 1.60046875 -9.05078125 0.921875 C-8.17075439 0.52581055 -7.29072754 0.12974609 -6.3840332 -0.27832031 C-3.7541569 -1.07442009 -2.53151483 -0.98925443 0 0 Z " fill="#F15738" transform="translate(832,318)"/>
<path d="M0 0 C3.0625 1.875 3.0625 1.875 5 5 C6.96321184 14.58818642 2.77902877 24.41138824 -2.0625 32.5 C-6.00205628 38.35473502 -10.72027395 43.4167182 -15.578125 48.50146484 C-18.28919346 51.35870012 -20.92167673 54.28859887 -23.57080078 57.203125 C-26.33343179 60.22582607 -29.14375069 63.19459223 -31.9921875 66.13671875 C-32.67635742 66.84924805 -33.36052734 67.56177734 -34.06542969 68.29589844 C-35.41472814 69.69893851 -36.77190749 71.09445166 -38.13769531 72.48144531 C-38.75483398 73.1256543 -39.37197266 73.76986328 -40.0078125 74.43359375 C-40.83756592 75.28522095 -40.83756592 75.28522095 -41.68408203 76.15405273 C-44.2247459 79.71805264 -44.06288775 82.50206909 -43.52197266 86.78491211 C-43.24570822 88.28421022 -42.9590106 89.78160898 -42.6640625 91.27734375 C-42.50927933 92.1006015 -42.35449615 92.92385925 -42.19502258 93.77206421 C-41.68047462 96.49562772 -41.15259565 99.21643675 -40.625 101.9375 C-40.26424173 103.83928269 -39.90431056 105.74122245 -39.54516602 107.64331055 C-37.56869326 118.06401826 -35.51324048 128.46820922 -33.42578125 138.8671875 C-33.00623568 140.96880903 -32.58680077 143.07045265 -32.16748047 145.17211914 C-31.36047361 149.21573862 -30.53837191 153.25589774 -29.70751953 157.29467773 C-29.33450357 159.15078705 -28.96192246 161.00698382 -28.58984375 162.86328125 C-28.4131868 163.70208832 -28.23652985 164.54089539 -28.05451965 165.40512085 C-26.85771914 171.46395022 -26.59385139 175.81502049 -30.06640625 181.2109375 C-30.8870586 182.27450294 -31.71937315 183.32916118 -32.5625 184.375 C-32.98724609 184.92027344 -33.41199219 185.46554687 -33.84960938 186.02734375 C-34.88963587 187.35951252 -35.94344238 188.68090382 -37 190 C-38.81274414 189.79516602 -38.81274414 189.79516602 -41 189 C-42.53295898 186.97241211 -42.53295898 186.97241211 -43.99609375 184.27734375 C-44.5478125 183.27646729 -45.09953125 182.27559082 -45.66796875 181.24438477 C-46.25191406 180.15311279 -46.83585938 179.06184082 -47.4375 177.9375 C-48.05367187 176.81077881 -48.66984375 175.68405762 -49.3046875 174.52319336 C-50.58805208 172.17183456 -51.8665229 169.81863947 -53.13623047 167.45996094 C-54.85318485 164.2725523 -56.58213783 161.0920741 -58.31640625 157.9140625 C-61.56354955 151.95304417 -64.78343093 145.97755682 -68 140 C-68.97471767 138.19069015 -69.94970495 136.38152575 -70.92471313 134.57237244 C-74.61949204 127.71653744 -78.31091876 120.8589028 -82 114 C-84.96672354 115.34241803 -87.11933874 116.84316968 -89.46875 119.08984375 C-90.11650391 119.70408203 -90.76425781 120.31832031 -91.43164062 120.95117188 C-92.45547852 121.9344043 -92.45547852 121.9344043 -93.5 122.9375 C-94.93701558 124.30129186 -96.37451981 125.66456901 -97.8125 127.02734375 C-98.52148438 127.7013623 -99.23046875 128.37538086 -99.9609375 129.06982422 C-106.01689894 134.802395 -112.18003505 140.42580369 -118.4375 145.9375 C-119.05367187 146.48921875 -119.66984375 147.0409375 -120.3046875 147.609375 C-122 149 -122 149 -125.0625 150.6875 C-127.53888145 153.64318109 -127.20002693 154.7801675 -126.9375 158.5625 C-126.42513694 162.61706536 -125.71351247 166.61370027 -124.9375 170.625 C-122.55794137 183.54525975 -122.55794137 183.54525975 -125.390625 188.3671875 C-128.73637574 192.4548221 -130.76128917 194.10290512 -136 195 C-136.35304199 194.27820557 -136.70608398 193.55641113 -137.06982422 192.81274414 C-138.66532642 189.5595671 -140.27002507 186.31101332 -141.875 183.0625 C-142.43058594 181.92619141 -142.98617187 180.78988281 -143.55859375 179.61914062 C-144.09355469 178.53955078 -144.62851562 177.45996094 -145.1796875 176.34765625 C-145.67194824 175.34742432 -146.16420898 174.34719238 -146.67138672 173.31665039 C-147.78729724 170.87576907 -147.78729724 170.87576907 -150 170 C-151.37671875 171.08667969 -151.37671875 171.08667969 -152.78125 172.1953125 C-173.02315596 188.15167052 -173.02315596 188.15167052 -180 188 C-180.7421875 186.32421875 -180.7421875 186.32421875 -181 184 C-179.4453125 181.51953125 -179.4453125 181.51953125 -177.125 178.8125 C-175.8875 177.36423828 -175.8875 177.36423828 -174.625 175.88671875 C-171.52306954 172.47551844 -168.29985023 169.23247531 -164.9453125 166.0703125 C-162.87794179 163.87009869 -161.51305061 161.6021469 -160 159 C-161.30203369 158.2886792 -161.30203369 158.2886792 -162.63037109 157.56298828 C-165.848924 155.80345699 -169.06496866 154.03938454 -172.28027344 152.27392578 C-173.67249595 151.51031283 -175.06539653 150.74793479 -176.45898438 149.98681641 C-178.46143063 148.89288743 -180.46140015 147.79454744 -182.4609375 146.6953125 C-183.39696304 146.18582565 -183.39696304 146.18582565 -184.35189819 145.66604614 C-186.87050168 144.27676563 -188.95451507 143.04548493 -191 141 C-191.11335471 137.03258505 -189.3492227 135.00778095 -186.75 132.25 C-183.90921308 129.35893366 -181.99694046 128.55012657 -178 128 C-175.34033203 128.16186523 -175.34033203 128.16186523 -172.5078125 128.55859375 C-171.47269531 128.69716797 -170.43757812 128.83574219 -169.37109375 128.97851562 C-167.76427734 129.20571289 -167.76427734 129.20571289 -166.125 129.4375 C-156.57471957 131.07065198 -156.57471957 131.07065198 -147 131 C-144.2504197 128.91790525 -144.2504197 128.91790525 -142 126 C-141.57267578 125.49597656 -141.14535156 124.99195313 -140.70507812 124.47265625 C-139.45462948 122.99468236 -138.22680475 121.49765775 -137 120 C-135.83891645 118.66180201 -134.67292085 117.32783492 -133.5 116 C-132.9534375 115.3709375 -132.406875 114.741875 -131.84375 114.09375 C-129.59123543 111.53580973 -127.29682908 109.0182102 -125 106.5 C-119.50207402 100.46732134 -114.02742198 94.43510014 -109 88 C-116.36050344 82.91152573 -124.02138833 78.37304873 -131.75 73.875 C-133.04489579 73.11907257 -134.3397356 72.36304925 -135.63452148 71.60693359 C-152.95997345 61.4992376 -170.38890259 51.60241152 -188 42 C-187.15587289 37.47012979 -185.03540449 36.02936421 -181.375 33.25 C-180.35148438 32.45078125 -179.32796875 31.6515625 -178.2734375 30.828125 C-171.86327342 27.2482243 -165.17598646 29.41884239 -158.3984375 31.01953125 C-157.46397797 31.23415512 -156.52951843 31.44877899 -155.56674194 31.66990662 C-152.50102261 32.3765407 -149.43806484 33.09445498 -146.375 33.8125 C-144.24392128 34.30547223 -142.11273487 34.79797915 -139.98144531 35.29003906 C-128.95340062 37.8469396 -117.94776774 40.48634852 -106.9609375 43.21484375 C-105.92524628 43.47139236 -104.88955505 43.72794098 -103.82247925 43.99226379 C-98.851091 45.22525256 -93.88304406 46.46970226 -88.91943359 47.73364258 C-87.12864232 48.18204945 -85.33779268 48.63022329 -83.546875 49.078125 C-82.73552094 49.28900253 -81.92416687 49.49988007 -81.08822632 49.71714783 C-77.35527624 50.64202357 -74.65734107 51.2743616 -71 50 C-68.84063098 48.16700883 -68.84063098 48.16700883 -66.75 45.875 C-64.03732798 43.0701498 -61.3427894 40.3461368 -58.375 37.8125 C-54.35213604 34.36088272 -50.49135541 30.74940935 -46.625 27.125 C-45.31002343 25.89699877 -43.99492099 24.66913231 -42.6796875 23.44140625 C-40.51025662 21.4155325 -38.34899747 19.38254495 -36.1953125 17.33984375 C-27.14821984 8.91419675 -13.38827345 -2.8744649 0 0 Z " fill="#116996" transform="translate(791,129)"/>
<path d="M0 0 C1.14825256 0.00137466 1.14825256 0.00137466 2.31970215 0.0027771 C3.93699347 0.00881484 5.55427352 0.02456631 7.17138672 0.04931641 C9.6472289 0.08580455 12.12157338 0.09033592 14.59765625 0.08984375 C16.16928377 0.09967593 17.74090115 0.11133338 19.3125 0.125 C20.05318726 0.12722565 20.79387451 0.12945129 21.55700684 0.13174438 C25.2864039 0.20062808 26.97501087 0.34011142 30.15625 2.4609375 C31.38382859 6.14367328 31.30765802 9.54547876 31.31015015 13.38082886 C31.31672353 14.60444773 31.31672353 14.60444773 31.3234297 15.85278618 C31.33682142 18.59570743 31.34299734 21.33859654 31.34912109 24.08154297 C31.3570216 26.04429266 31.36529052 28.0070409 31.37390137 29.9697876 C31.40012157 36.42255261 31.41542632 42.87532414 31.4296875 49.328125 C31.43504667 51.54784271 31.44042418 53.76756037 31.44581985 55.98727798 C31.46744616 65.21769841 31.48618463 74.44811709 31.49744225 83.67855644 C31.51369402 96.91747278 31.54690456 110.15609621 31.60384309 123.39490211 C31.64249701 132.69857317 31.66206939 142.00216573 31.66736281 151.305915 C31.67102172 156.86567585 31.68310091 162.42512431 31.71546555 167.98479843 C31.74546699 173.21334084 31.7518863 178.4413805 31.74008179 183.66999054 C31.73986041 185.59008022 31.74821856 187.5101927 31.76573563 189.43020248 C31.7883365 192.04977104 31.78017549 194.66750238 31.76425171 197.28707886 C31.78507484 198.4294475 31.78507484 198.4294475 31.80631864 199.59489429 C31.7472515 203.53263748 31.28523923 205.2963577 28.82662392 208.43335152 C25.38266118 211.04831511 23.35699854 211.07922749 19.0625 211.0546875 C18.39335571 211.05472778 17.72421143 211.05476807 17.03479004 211.05480957 C15.62612467 211.04947029 14.21745846 211.03195508 12.80908203 211.00292969 C10.66215252 210.96105263 8.5183632 210.96186615 6.37109375 210.96875 C-6.43375282 210.87093468 -6.43375282 210.87093468 -10.84375 206.4609375 C-10.94819333 203.86504127 -10.98707519 201.29551535 -10.98419189 198.69889832 C-10.98716302 197.87598858 -10.99013414 197.05307884 -10.9931953 196.20523244 C-11.00192128 193.42611819 -11.00339382 190.64704682 -11.00488281 187.86791992 C-11.00950826 185.88413907 -11.01453254 183.90035911 -11.01992798 181.9165802 C-11.03308092 176.51158488 -11.03950263 171.10660199 -11.04393864 165.70159316 C-11.04686488 162.32807671 -11.05096883 158.95456369 -11.05544281 155.58104897 C-11.06912573 145.03580878 -11.07878834 134.49057639 -11.0826447 123.94532794 C-11.08712673 111.75454977 -11.10467804 99.56388365 -11.1336453 87.37313956 C-11.15523353 77.96251671 -11.16534746 68.55192545 -11.16668582 59.14127809 C-11.16773596 53.51509796 -11.17368791 47.88902304 -11.19150543 42.26286888 C-11.20793661 36.97124523 -11.21016577 31.67980643 -11.20136642 26.38816643 C-11.20059337 24.44348405 -11.20497389 22.49879195 -11.21482468 20.55413437 C-11.22746478 17.90384281 -11.22171086 15.25421382 -11.21124268 12.60392761 C-11.21929908 11.83028954 -11.22735548 11.05665147 -11.23565602 10.25956982 C-11.20634663 7.09731198 -11.02452964 4.80459253 -9.53989792 1.98236561 C-6.76167588 -0.50967241 -3.54034468 -0.06869081 0 0 Z " fill="#F15938" transform="translate(801.84375,418.5390625)"/>
<path d="M0 0 C1.42918455 0.07735178 2.8541307 0.23325284 4.2734375 0.41796875 C5.2219458 0.5360791 6.1704541 0.65418945 7.14770508 0.77587891 C8.2127124 0.91171387 9.27771973 1.04754883 10.375 1.1875 C21.90530398 2.58456019 33.44881044 3.77407069 45.01226807 4.86123657 C46.84769373 5.0341216 48.68294783 5.20884003 50.51800537 5.3855896 C61.51458612 6.44247297 72.48079568 7.26250414 83.52339172 7.65213013 C89.89746572 7.89746572 89.89746572 7.89746572 91 9 C91.1003188 11.45905221 91.1361818 13.89003428 91.12939453 16.34960938 C91.13202301 17.50321709 91.13202301 17.50321709 91.13470459 18.68013 C91.1391234 21.23469263 91.13618502 23.78918661 91.1328125 26.34375 C91.13348553 28.11112481 91.13445555 29.87849953 91.13571167 31.64587402 C91.13718868 35.35490803 91.13503398 39.063918 91.13037109 42.77294922 C91.1246738 47.53822493 91.12795279 52.30344432 91.13394356 57.06871796 C91.13754908 60.71971057 91.13641062 64.37068973 91.13381577 68.02168274 C91.13314647 69.77924099 91.133975 71.53680045 91.13629532 73.2943573 C91.13882171 75.74640154 91.13498146 78.19835331 91.12939453 80.65039062 C91.13141876 81.38393265 91.13344299 82.11747467 91.13552856 82.87324524 C91.11426264 87.88573736 91.11426264 87.88573736 90 89 C86.84530076 89.13610784 83.71130196 89.20740601 80.55493164 89.23706055 C79.563134 89.25017273 78.57133636 89.26328491 77.54948425 89.27679443 C74.25308169 89.31876079 70.95665451 89.35316359 67.66015625 89.38671875 C65.37950988 89.41235635 63.09886516 89.43814041 60.81822205 89.46406555 C56.03061902 89.51712057 51.2429931 89.5660366 46.45532227 89.61254883 C40.30669683 89.6729481 34.15832328 89.7471545 28.00989628 89.82492352 C23.29778709 89.88239892 18.58561691 89.93075622 13.87338066 89.976511 C11.60584357 89.99998685 9.33833823 90.02676085 7.07087898 90.05682945 C3.90541594 90.09779759 0.74008644 90.12609493 -2.42553711 90.15112305 C-3.37055084 90.16609329 -4.31556458 90.18106354 -5.28921509 90.19648743 C-6.57853691 90.20281693 -6.57853691 90.20281693 -7.89390564 90.20927429 C-8.64294631 90.2171934 -9.39198698 90.22511251 -10.16372585 90.2332716 C-12 90 -12 90 -14 88 C-14.52098043 83.69424994 -14.19425119 79.32538943 -14 75 C-13.96422852 74.19256348 -13.92845703 73.38512695 -13.89160156 72.55322266 C-10.74429704 10.74429704 -10.74429704 10.74429704 0 0 Z " fill="#FDFDFD" transform="translate(400,430)"/>
<path d="M0 0 C7.4214218 1.41550825 14.70596823 3.45361429 22.00195312 5.40405273 C23.99519765 5.93621785 25.98972179 6.46337723 27.984375 6.99023438 C34.73704274 8.78458128 41.40317387 10.69255753 48 13 C47.71334473 14.19653198 47.71334473 14.19653198 47.42089844 15.41723633 C40.31052742 45.33683906 36.34480542 74.06947544 35 105 C9.92 105 -15.16 105 -41 105 C-39.83372998 85.17340974 -39.83372998 85.17340974 -38.3125 78.5625 C-38.13589844 77.77504395 -37.95929688 76.98758789 -37.77734375 76.17626953 C-31.65202003 49.90765095 -19.39539527 19.39539527 0 0 Z " fill="#FDFDFD" transform="translate(332,414)"/>
<path d="M0 0 C0.69512695 0.00091644 1.39025391 0.00183289 2.10644531 0.0027771 C3.57233532 0.00880407 5.03821353 0.02452327 6.50390625 0.04931641 C8.74265116 0.08581768 10.97973857 0.09033562 13.21875 0.08984375 C25.41601638 0.17388138 25.41601638 0.17388138 28.75 2.4609375 C30.05481314 5.07056377 29.88480849 6.98997233 29.89717102 9.9135437 C29.90432632 11.07166565 29.91148163 12.2297876 29.91885376 13.42300415 C29.92154266 14.69993134 29.92423157 15.97685852 29.92700195 17.29248047 C29.93326586 18.6458758 29.9399126 19.99926941 29.94691467 21.35266113 C29.96432929 25.03450604 29.97487735 28.71633797 29.9831202 32.39821386 C29.98826865 34.69749649 29.9943444 36.99677507 30.00063133 39.29605484 C30.01968342 46.4871026 30.03391536 53.67814007 30.0422433 60.86920822 C30.05202139 69.1756827 30.07835549 77.4818911 30.11874419 85.78827178 C30.14887787 92.20530898 30.16370949 98.62226978 30.16702431 105.03937638 C30.16937767 108.87374107 30.17837481 112.70782151 30.20348549 116.54211044 C30.226724 120.14877737 30.23101688 123.75497203 30.22072411 127.36169434 C30.21999077 129.31710849 30.23911107 131.27249844 30.25878906 133.22781372 C30.25184525 134.39157532 30.24490143 135.55533691 30.23774719 136.75436401 C30.24013555 137.76573866 30.2425239 138.7771133 30.24498463 139.81913567 C29.61157402 143.19973624 28.44463696 144.38334559 25.75 146.4609375 C22.52954102 146.94677734 22.52954102 146.94677734 18.75390625 146.921875 C18.08334702 146.92095856 17.41278778 146.92004211 16.72190857 146.9190979 C15.30729065 146.91307129 13.89268494 146.89735309 12.47827148 146.87255859 C10.32292179 146.83611372 8.16929724 146.83153904 6.01367188 146.83203125 C-5.86594116 146.74726135 -5.86594116 146.74726135 -10.25 144.4609375 C-11.55481314 141.85131123 -11.38480849 139.93190267 -11.39717102 137.0083313 C-11.40432632 135.85020935 -11.41148163 134.6920874 -11.41885376 133.49887085 C-11.42154266 132.22194366 -11.42423157 130.94501648 -11.42700195 129.62939453 C-11.43326586 128.2759992 -11.4399126 126.92260559 -11.44691467 125.56921387 C-11.46432929 121.88736896 -11.47487735 118.20553703 -11.4831202 114.52366114 C-11.48826865 112.22437851 -11.4943444 109.92509993 -11.50063133 107.62582016 C-11.51968342 100.4347724 -11.53391536 93.24373493 -11.5422433 86.05266678 C-11.55202139 77.7461923 -11.57835549 69.4399839 -11.61874419 61.13360322 C-11.64887787 54.71656602 -11.66370949 48.29960522 -11.66702431 41.88249862 C-11.66937767 38.04813393 -11.67837481 34.21405349 -11.70348549 30.37976456 C-11.726724 26.77309763 -11.73101688 23.16690297 -11.72072411 19.56018066 C-11.71999077 17.60476651 -11.73911107 15.64937656 -11.75878906 13.69406128 C-11.75184525 12.53029968 -11.74490143 11.36653809 -11.73774719 10.16751099 C-11.74013555 9.15613634 -11.7425239 8.1447617 -11.74498463 7.10273933 C-10.50301553 0.47417743 -5.95433168 -0.03780763 0 0 Z " fill="#F15737" transform="translate(738.25,482.5390625)"/>
<path d="M0 0 C7.89430189 6.45456241 13.75596461 14.07092412 15.75 24.25 C16.54285499 37.15694171 14.0466156 46.66897739 6.0625 56.9375 C-0.20844288 63.86769585 -9.63632637 68.54972867 -18.90625 69.53125 C-30.30700094 69.91554498 -40.86017847 66.15111625 -49.29296875 58.36328125 C-57.40707629 49.55713895 -60.8988257 39.39368959 -60.61328125 27.4609375 C-59.34298475 16.2331555 -53.79476858 7.46112376 -45.25 0.25 C-30.95848916 -8.76218407 -14.22459812 -9.99271192 0 0 Z " fill="#FEFDFD" transform="translate(522.25,198.75)"/>
<path d="M0 0 C1.18154663 -0.00218285 1.18154663 -0.00218285 2.38696289 -0.00440979 C4.05130718 -0.0027508 5.71566681 0.00881063 7.37988281 0.02954102 C9.92839676 0.05849034 12.47482999 0.05015265 15.0234375 0.03710938 C16.64063512 0.04334708 18.25782616 0.05173828 19.875 0.0625 C21.01884155 0.05809654 21.01884155 0.05809654 22.18579102 0.05360413 C27.36688566 0.14605551 27.36688566 0.14605551 29.63809204 1.53930664 C31.64947752 4.56826545 31.35451841 7.69340291 31.32568359 11.20874023 C31.33094055 11.99279236 31.33619751 12.77684448 31.34161377 13.58465576 C31.35482817 16.17903509 31.34606996 18.77280182 31.3359375 21.3671875 C31.33795803 23.1693585 31.34086929 24.9715287 31.34463501 26.7736969 C31.34906048 30.55241676 31.34262095 34.33092398 31.32861328 38.10961914 C31.31153348 42.95316494 31.32135345 47.79621161 31.33933067 52.63973904 C31.35017299 56.36208351 31.34671991 60.08430974 31.3389473 63.80665779 C31.33694589 65.59243898 31.33940248 67.3782309 31.34638596 69.16399956 C31.35400647 71.66097297 31.34238771 74.15713941 31.32568359 76.65405273 C31.33479263 77.76152611 31.33479263 77.76152611 31.34408569 78.89137268 C31.30559859 81.99741977 31.11205513 84.17909266 29.60073853 86.92372131 C25.18193577 91.10111592 17.88603191 89.72026376 12.16845703 89.73632812 C10.07674294 89.7460277 7.98601463 89.77706137 5.89453125 89.80859375 C4.55729747 89.81512515 3.2200567 89.82037508 1.8828125 89.82421875 C0.06547607 89.8382373 0.06547607 89.8382373 -1.78857422 89.85253906 C-5.35185873 89.46459012 -7.22011185 88.6388071 -10.0625 86.49609375 C-11.57853841 83.46401694 -11.21857035 80.31549005 -11.22363281 76.98876953 C-11.23108017 75.82754074 -11.23108017 75.82754074 -11.23867798 74.64285278 C-11.25331172 72.07569498 -11.26010354 69.50859896 -11.265625 66.94140625 C-11.27137539 65.16022743 -11.27713313 63.37904864 -11.28289795 61.59786987 C-11.29341134 57.86032828 -11.29925181 54.12280821 -11.30273438 50.38525391 C-11.3082203 45.59441462 -11.33224893 40.80385938 -11.36070633 36.01310921 C-11.37932347 32.3328264 -11.38453781 28.65261214 -11.38607025 24.97228622 C-11.38909933 23.20602744 -11.39713644 21.43976994 -11.41025543 19.67355728 C-11.42729708 17.20288693 -11.42544052 14.7329122 -11.41894531 12.26220703 C-11.4281601 11.53167114 -11.43737488 10.80113525 -11.4468689 10.04846191 C-11.42149306 6.9694512 -11.21537305 4.78524691 -9.76507568 2.04206848 C-6.94925776 -0.51475375 -3.6076379 -0.05314739 0 0 Z " fill="#F15838" transform="translate(673.0625,539.50390625)"/>
<path d="M0 0 C0.73951904 -0.00241196 1.47903809 -0.00482391 2.2409668 -0.00730896 C3.80099868 -0.00633157 5.36106571 0.00703669 6.92089844 0.03198242 C9.30523797 0.06630172 11.68587127 0.05263883 14.0703125 0.03320312 C15.5885574 0.04010187 17.10679276 0.04977453 18.625 0.0625 C19.33551514 0.05754013 20.04603027 0.05258026 20.77807617 0.04747009 C23.91647024 0.12192882 26.05066729 0.47292358 28.76196289 2.08813477 C31.10534082 5.9280866 30.86605707 9.43006392 30.80859375 13.84765625 C30.81004898 14.74254761 30.81150421 15.63743896 30.81300354 16.55944824 C30.81134563 18.44900777 30.79979644 20.33858095 30.77905273 22.22802734 C30.75010174 25.11874811 30.75844501 28.00763416 30.77148438 30.8984375 C30.76524661 32.73568599 30.75685536 34.57292869 30.74609375 36.41015625 C30.74902939 37.27378784 30.75196503 38.13741943 30.75498962 39.02722168 C30.69934911 42.57001364 30.65768126 44.98119598 28.97290039 48.14257812 C24.38884129 52.24605582 16.93517932 50.93027103 11.11621094 50.97900391 C9.66715436 50.99556641 8.2181796 51.02286131 6.76953125 51.06103516 C4.67144784 51.11597131 2.57526937 51.13769687 0.4765625 51.15234375 C-1.40361572 51.18207275 -1.40361572 51.18207275 -3.32177734 51.21240234 C-6.6875 50.62890625 -6.6875 50.62890625 -9.59594727 48.66259766 C-12.44003001 44.53739955 -12.39438705 41.46856399 -12.31640625 36.56640625 C-12.31881821 35.69749756 -12.32123016 34.82858887 -12.32371521 33.93334961 C-12.32273816 32.10102767 -12.30937845 30.2686757 -12.28442383 28.43652344 C-12.25010718 25.63764814 -12.26377272 22.84193075 -12.28320312 20.04296875 C-12.27630436 18.25910119 -12.26663169 16.47524176 -12.25390625 14.69140625 C-12.25886612 13.85794678 -12.26382599 13.0244873 -12.26893616 12.16577148 C-12.19230301 8.37042065 -11.89094508 6.02496772 -10.13256836 2.60180664 C-6.84416919 -0.05156866 -4.05371975 -0.07564239 0 0 Z " fill="#F15838" transform="translate(609.6875,578.37109375)"/>
<path d="M0 0 C8.60753904 3.43349701 16.8999355 7.29622268 25.125 11.5625 C25.70894531 11.86513763 26.29289063 12.16777527 26.89453125 12.47958374 C41.71312951 20.19281143 55.37729177 29.0420563 68 40 C68.78246094 40.6496875 69.56492187 41.299375 70.37109375 41.96875 C73.78827782 44.84381396 76.07232999 46.9428725 78 51 C70.96095165 54.98203987 63.76577655 56.84902195 55.9375 58.75 C54.69677734 59.06582031 53.45605469 59.38164062 52.17773438 59.70703125 C46.27954758 61.16501001 41.10802177 62.17169015 35 62 C34.77449463 61.44763672 34.54898926 60.89527344 34.31665039 60.32617188 C26.0880306 40.30713618 16.56219178 21.73850253 2.56640625 5.05859375 C1 3 1 3 0 0 Z " fill="#FBFCFD" transform="translate(579,343)"/>
<path d="M0 0 C0.99 0.495 0.99 0.495 2 1 C1.46632813 1.66902344 0.93265625 2.33804687 0.3828125 3.02734375 C-12.64988661 19.82554589 -21.44945791 38.64546193 -30 58 C-37.04518273 58.55376982 -43.3257197 56.52077737 -50.0625 54.625 C-51.79983398 54.14933594 -51.79983398 54.14933594 -53.57226562 53.6640625 C-58.76423012 52.2326191 -63.90000412 50.73433085 -69 49 C-63.63523651 31.7649265 -33.74795848 17.0382892 -19 9 C-15.48756352 7.16560805 -11.94703669 5.40271907 -8.375 3.6875 C-7.56313232 3.29602783 -6.75126465 2.90455566 -5.91479492 2.5012207 C-3.97314181 1.59994059 -1.9894346 0.7902358 0 0 Z " fill="#FBFCFD" transform="translate(417,348)"/>
<path d="M0 0 C23.76 0 47.52 0 72 0 C70.68 1.32 69.36 2.64 68 4 C67.01 3.505 67.01 3.505 66 3 C52.09030308 1.51647808 37.96991466 1.68106882 24 1.4375 C21.66405656 1.39419974 19.32811897 1.35058227 16.9921875 1.30664062 C11.32818725 1.2007741 5.66412756 1.09880752 0 1 C0 0.67 0 0.34 0 0 Z " fill="#29729A" transform="translate(512,519)"/>
<path d="M0 0 C3 3 3 3 3.29296875 6.79296875 C3.2730801 8.25809933 3.23737968 9.72308367 3.1875 11.1875 C3.16719727 12.31188477 3.16719727 12.31188477 3.14648438 13.45898438 C3.11118539 15.30629767 3.05737917 17.15324066 3 19 C2.01 19.33 1.02 19.66 0 20 C0 13.4 0 6.8 0 0 Z " fill="#F16345" transform="translate(831,349)"/>
<path d="M0 0 C0.33 0 0.66 0 1 0 C1.02685938 2.14576637 1.04633088 4.29162645 1.0625 6.4375 C1.07410156 7.63246094 1.08570313 8.82742188 1.09765625 10.05859375 C1 13 1 13 0 14 C-4.01636782 13.77265843 -6.32292551 13.57290919 -9.4375 10.9375 C-9.953125 10.298125 -10.46875 9.65875 -11 9 C-10.236875 9.309375 -9.47375 9.61875 -8.6875 9.9375 C-6.81210323 10.67893593 -4.91315348 11.36228217 -3 12 C-2.67 10.68 -2.34 9.36 -2 8 C-1.34 8 -0.68 8 0 8 C0 5.36 0 2.72 0 0 Z " fill="#EF401E" transform="translate(833,368)"/>
<path d="M0 0 C0.66 0.33 1.32 0.66 2 1 C0.78841899 2.4471662 -0.42340962 3.89412611 -1.63671875 5.33984375 C-2.81804718 6.77842421 -3.94562122 8.26082829 -5.0625 9.75 C-6.96110856 11.95483575 -8.32258249 12.94815741 -11 14 C-9.61085525 9.70281047 -7.61968015 7.29312243 -4.375 4.1875 C-3.55773437 3.39730469 -2.74046875 2.60710937 -1.8984375 1.79296875 C-0.95871094 0.90544922 -0.95871094 0.90544922 0 0 Z " fill="#197B43" transform="translate(299,174)"/>
<path d="M0 0 C-2.97 0.99 -5.94 1.98 -9 3 C-9 3.66 -9 4.32 -9 5 C-12.83887763 6.48320272 -15.06204091 7.22419163 -19 6 C-4.51048951 -1.5034965 -4.51048951 -1.5034965 0 0 Z " fill="#EE4625" transform="translate(497,585)"/>
<path d="M0 0 C3.96 0 7.92 0 12 0 C11.01 1.485 11.01 1.485 10 3 C7.37302936 3.22137393 4.99106036 3.28162025 2.375 3.1875 C1.66859375 3.17396484 0.9621875 3.16042969 0.234375 3.14648438 C-1.51074128 3.1111104 -3.25546608 3.05730221 -5 3 C-5 2.67 -5 2.34 -5 2 C-3.35 1.67 -1.7 1.34 0 1 C0 0.67 0 0.34 0 0 Z " fill="#F36649" transform="translate(244,639)"/>
<path d="M0 0 C1.13643966 3.40931897 0.86747764 4.00335456 -0.4375 7.1875 C-0.72496094 7.90292969 -1.01242188 8.61835938 -1.30859375 9.35546875 C-1.53675781 9.89816406 -1.76492187 10.44085938 -2 11 C-2.99 11 -3.98 11 -5 11 C-6.5625 8.1875 -6.5625 8.1875 -8 5 C-7.67 4.01 -7.34 3.02 -7 2 C-6.34 3.98 -5.68 5.96 -5 8 C-4.01 8 -3.02 8 -2 8 C-1.7834375 6.576875 -1.7834375 6.576875 -1.5625 5.125 C-1 2 -1 2 0 0 Z " fill="#107135" transform="translate(227,332)"/>
<path d="M0 0 C0.66 0.33 1.32 0.66 2 1 C-1.60962026 5.64094034 -4.70568832 8.35284416 -10 11 C-8.55218207 7.55571735 -6.72305391 5.63869038 -3.875 3.25 C-3.15054688 2.63640625 -2.42609375 2.0228125 -1.6796875 1.390625 C-0.84824219 0.70226562 -0.84824219 0.70226562 0 0 Z " fill="#207D46" transform="translate(241,258)"/>
<path d="M0 0 C-1.32 0.33 -2.64 0.66 -4 1 C-4 1.66 -4 2.32 -4 3 C-7.3 3.33 -10.6 3.66 -14 4 C-11.8244694 1.8244694 -10.44026108 1.28120447 -7.5625 0.3125 C-6.78003906 0.04050781 -5.99757813 -0.23148438 -5.19140625 -0.51171875 C-3 -1 -3 -1 0 0 Z " fill="#F0401D" transform="translate(455,601)"/>
<path d="M0 0 C2.35953094 2.35953094 2.49141413 3.77895617 3 7 C1.68 7.99 0.36 8.98 -1 10 C-0.67 6.7 -0.34 3.4 0 0 Z " fill="#0C5C8C" transform="translate(372,461)"/>
<path d="M0 0 C2.64 0 5.28 0 8 0 C5.3139714 1.79068573 3.3373411 2.66055791 0.3125 3.625 C-0.49574219 3.88539063 -1.30398438 4.14578125 -2.13671875 4.4140625 C-2.75160156 4.60742188 -3.36648438 4.80078125 -4 5 C-3.67 4.34 -3.34 3.68 -3 3 C-2.34 3 -1.68 3 -1 3 C-0.67 2.01 -0.34 1.02 0 0 Z " fill="#F26510" transform="translate(484,192)"/>
<path d="M0 0 C0 0.66 0 1.32 0 2 C-3.375 2.625 -3.375 2.625 -7 3 C-7.66 2.34 -8.32 1.68 -9 1 C-6.04335481 -0.4783226 -3.25770263 -0.06032783 0 0 Z " fill="#F04F2F" transform="translate(363,626)"/>
<path d="M0 0 C0.66 0.66 1.32 1.32 2 2 C0.68 3.32 -0.64 4.64 -2 6 C-2.99 5.34 -3.98 4.68 -5 4 C-3.35 2.68 -1.7 1.36 0 0 Z M-4 6 C-2 7 -2 7 -2 7 Z " fill="#146191" transform="translate(610,162)"/>
<path d="M0 0 C3.3 0 6.6 0 10 0 C10 0.99 10 1.98 10 3 C6.7 2.34 3.4 1.68 0 1 C0 0.67 0 0.34 0 0 Z " fill="#1E7E47" transform="translate(336,158)"/>
<path d="M0 0 C0.66 0.33 1.32 0.66 2 1 C-1.01887244 4.48331435 -3.56909529 5.79157144 -8 7 C-5.42215154 4.35247996 -3.08351902 2.05567935 0 0 Z " fill="#EE3F1F" transform="translate(626,513)"/>
<path d="M0 0 C1 3 1 3 1 5 C0.34 5 -0.32 5 -1 5 C-1.66 6.98 -2.32 8.96 -3 11 C-4 8 -4 8 -3.22265625 5.95703125 C-2.83980469 5.24933594 -2.45695312 4.54164063 -2.0625 3.8125 C-1.68222656 3.09707031 -1.30195313 2.38164062 -0.91015625 1.64453125 C-0.60980469 1.10183594 -0.30945313 0.55914062 0 0 Z " fill="#0F5486" transform="translate(288,444)"/>
<path d="M0 0 C0 4.38968456 -2.12805101 5.76905739 -5 9 C-5.66 8.67 -6.32 8.34 -7 8 C-4.69 5.36 -2.38 2.72 0 0 Z " fill="#0D5284" transform="translate(653,250)"/>
<path d="M0 0 C0.66 0 1.32 0 2 0 C0.7508258 3.45925163 -0.67527795 6.14693203 -3 9 C-3.33 8.01 -3.66 7.02 -4 6 C-3.34 6 -2.68 6 -2 6 C-1.34 4.02 -0.68 2.04 0 0 Z " fill="#34944E" transform="translate(296,423)"/>
<path d="M0 0 C2 2 2 2 2.1953125 3.9453125 C2.13020833 5.96354167 2.06510417 7.98177083 2 10 C1.67 9.01 1.34 8.02 1 7 C0.34 7 -0.32 7 -1 7 C-0.67 4.69 -0.34 2.38 0 0 Z " fill="#1A7C42" transform="translate(290,337)"/>
</svg>
